<?xml version="1.0" encoding="UTF-8"?>
<svg fill="none" version="1.1" viewBox="0 0 80 80" xmlns="http://www.w3.org/2000/svg">
 <g transform="translate(.47669 .536)">
  <path d="m40.454 57.123h-1.5036v3.0742h1.5036c1.0023 0 1.3603-0.7864 1.3603-1.5729 0-0.8579-0.2864-1.5013-1.3603-1.5013zm-0.9308-57.123c-21.838 0-39.523 17.659-39.523 39.464s17.685 39.464 39.523 39.464 39.523-17.659 39.523-39.464c0.0717-21.806-17.685-39.464-39.523-39.464zm0.2148 11.153c3.1503 0 5.6563 2.5023 5.6563 5.648s-2.506 5.648-5.6563 5.648c-3.1504 0-5.6564-2.5023-5.6564-5.648s2.506-5.648 5.6564-5.648zm0 13.369c3.1503 0 5.6563 2.5022 5.6563 5.6479s-2.506 5.648-5.6563 5.648c-3.1504 0-5.6564-2.5023-5.6564-5.648s2.506-5.6479 5.6564-5.6479zm-13.747-13.369c3.1503 0 5.6563 2.5023 5.6563 5.648s-2.506 5.648-5.6563 5.648c-3.1504 0-5.6564-2.5023-5.6564-5.648s2.506-5.648 5.6564-5.648zm0 13.369c3.1503 0 5.6563 2.5022 5.6563 5.6479s-2.506 5.648-5.6563 5.648c-3.1504 0-5.6564-2.5023-5.6564-5.648s2.506-5.6479 5.6564-5.6479zm0 13.727c3.1503 0 5.6563 2.5022 5.6563 5.6479s-2.506 5.648-5.6563 5.648c-3.1504 0-5.6564-2.5023-5.6564-5.648s2.506-5.6479 5.6564-5.6479zm6.6587 23.95c0 1.3584-0.0716 3.0742-1.8616 4.3611-1.2172 0.8579-2.5776 1.0009-3.8664 1.0009-1.2887 0-2.6491-0.143-3.8663-1.0009-1.79-1.2869-1.8616-3.0027-1.8616-4.3611v-7.9358h3.7948v7.9358c0 0.7864 0.0716 1.3584 0.6444 1.7873 0.4296 0.3575 0.7159 0.429 1.2887 0.429 0.5012 0 0.8592-0.143 1.2888-0.429 0.5728-0.5004 0.6444-1.0724 0.6444-1.7873v-7.9358h3.7948zm7.0883-23.95c3.1503 0 5.6563 2.5022 5.6563 5.6479s-2.506 5.648-5.6563 5.648c-3.1504 0-5.6564-2.5023-5.6564-5.648s2.506-5.6479 5.6564-5.6479zm4.0095 24.093c-0.716 0.5004-1.5752 0.7149-3.6515 0.7149h-1.074v4.2896h-3.2936v-13.083h5.4416c2.6491 0 4.2959 1.5729 4.2959 4.5041 0 1.5014-0.6444 2.7882-1.7184 3.5747zm13.604-4.1466c-1.2887-1.0724-1.7899-1.0009-2.7923-1.0009-2.0048 0-3.3652 1.5013-3.3652 3.6461s1.3604 3.6462 3.3652 3.6462c1.074 0 1.5752-0.143 2.7923-1.0009v3.3602c-1.2171 0.6434-1.9331 0.7864-3.1503 0.7864-3.938 0-6.7303-2.7883-6.7303-6.7919 0-3.9321 2.8639-6.8633 6.6587-6.8633 1.1456 0 1.9332 0.2145 3.2219 0.7864zm-4.2243-8.7222c-3.1504 0-5.6563-2.5023-5.6563-5.648s2.5059-5.6479 5.6563-5.6479c3.0787 0 5.6563 2.5022 5.6563 5.6479s-2.5776 5.648-5.6563 5.648zm0-13.727c-3.1504 0-5.6563-2.5023-5.6563-5.648s2.5059-5.6479 5.6563-5.6479c3.0787 0 5.6563 2.5022 5.6563 5.6479s-2.5776 5.648-5.6563 5.648zm0-13.298c-3.1504 0-5.6563-2.5023-5.6563-5.648s2.5059-5.648 5.6563-5.648c3.0787 0 5.6563 2.5023 5.6563 5.648s-2.5776 5.648-5.6563 5.648z" clip-path="url(#a)" fill="#007bc0"/>
 </g>
 <defs>
  <clipPath id="a">
   <rect width="360" height="79" fill="#fff"/>
  </clipPath>
 </defs>
</svg>
