<?xml version="1.0" encoding="UTF-8"?>
<svg width="450mm" height="110.5mm" version="1.1" viewBox="0 0 450 110.5" xmlns="http://www.w3.org/2000/svg">
 <g transform="matrix(1.0009 0 0 1.0009 -.00015131 -3.6222e-7)">
  <path class="st0" d="m55.2 0c-30.5 0-55.2 24.7-55.2 55.2s24.7 55.2 55.2 55.2 55.2-24.7 55.2-55.2c0.1-30.5-24.7-55.2-55.2-55.2z" fill="#007bc0"/>
 </g>
 <g fill="none" stroke="#fff" stroke-width="2.3">
  <circle cx="50.166" cy="15.359" r="7.318"/>
  <circle cx="69.325" cy="23.929" r="7.318"/>
  <circle cx="21.675" cy="56.415" r="7.318"/>
  <circle cx="21.331" cy="77.316" r="7.318"/>
  <circle cx="80.077" cy="80.884" r="7.318"/>
  <circle cx="94.916" cy="65.998" r="7.318"/>
 </g>
 <g fill="#fff">
  <circle cx="60.857" cy="42.803" r="7.5022"/>
  <circle cx="42.42" cy="56.705" r="7.5022"/>
  <circle cx="65.313" cy="66.287" r="7.5022"/>
 </g>
 <g fill="none" stroke="#fff" stroke-width="2.8">
  <path d="m52.533 22.283 6.6743 15.517"/>
  <path d="m66.445 30.656-5.5878 12.147"/>
  <path d="m64.446 66.655-1.4882-22.409"/>
  <path d="m43.819 55.25 12.823-10.378"/>
  <path d="m39.048 56.705-10.055-0.23807"/>
  <path d="m38.753 60.646-11.748 12.048"/>
  <path d="m47.68 58.545 12.42 4.8118"/>
  <path d="m74.794 75.767-5.5709-5.5578"/>
  <path d="m87.598 65.998-15.589 0.28918"/>
 </g>
 <g fill="#007bc0">
  <text transform="scale(.26458)" font-family="Iosevka" font-size="24px" stroke="#ffffff" stroke-width="10.583" text-align="center" style="shape-inside:url(#rect155);white-space:pre" xml:space="preserve"/>
  <g stroke-width="0">
   <path d="m147.31 27.233h-3.8774c-0.35022 2.6766-1.701 4.0025-4.0775 4.0025-1.4509 0-2.5766-0.52532-3.4271-1.626-0.85053-1.1007-1.2758-2.5516-1.2758-4.4027 0-1.0506 0.15009-2.0012 0.45028-2.9018 0.30018-0.87554 0.80049-1.626 1.551-2.2264 0.75047-0.60037 1.651-0.90056 2.7517-0.90056 1.0506 0 1.9012 0.25015 2.6016 0.80049s1.1507 1.3008 1.3508 2.3014h3.8274c-0.1501-1.8511-0.95059-3.3771-2.3765-4.5778-1.4509-1.2007-3.227-1.8011-5.3283-1.8011-2.6516 0-4.7779 0.87554-6.3789 2.6516-1.601 1.7511-2.3765 3.9774-2.3765 6.6541 0 2.8017 0.77548 5.0781 2.3514 6.7792s3.6522 2.5766 6.2538 2.5766c2.3765 0 4.2526-0.67542 5.6285-1.9762 1.3508-1.3258 2.1513-3.1019 2.3514-5.3533z"/>
   <path d="m155.11 16.301h-3.9274v17.811h3.9274z"/>
   <path d="m173.17 16.301h-13.358v17.811h13.533v-3.277h-9.656v-4.3777h8.7054v-3.0769h-8.7054v-3.8774h9.4808z"/>
   <path d="m177.27 34.112h3.7773v-11.957l7.3795 11.957h3.9024v-17.811h-3.7523v11.932l-7.3295-11.932h-3.9774z"/>
   <path d="m212.97 27.233h-3.8774c-0.35022 2.6766-1.701 4.0025-4.0775 4.0025-1.4509 0-2.5766-0.52532-3.4271-1.626s-1.2758-2.5516-1.2758-4.4027c0-1.0506 0.1501-2.0012 0.45028-2.9018 0.30019-0.87554 0.80049-1.626 1.551-2.2264 0.75046-0.60037 1.651-0.90056 2.7517-0.90056 1.0506 0 1.9012 0.25015 2.6016 0.80049s1.1507 1.3008 1.3508 2.3014h3.8274c-0.15009-1.8511-0.95058-3.3771-2.3765-4.5778-1.4509-1.2007-3.227-1.8011-5.3283-1.8011-2.6516 0-4.7779 0.87554-6.3789 2.6516-1.601 1.7511-2.3765 3.9774-2.3765 6.6541 0 2.8017 0.77547 5.0781 2.3514 6.7792s3.6522 2.5766 6.2538 2.5766c2.3765 0 4.2526-0.67542 5.6285-1.9762 1.3508-1.3258 2.1513-3.1019 2.3514-5.3533z"/>
   <path d="m220.78 16.301h-3.9274v17.811h3.9274z"/>
   <path d="m234.33 16.276h-4.0275l-6.7792 17.836h4.0025l1.4509-3.9774h6.6291l1.4009 3.9774h4.1025zm0.3252 11.007h-4.7279l2.3765-6.6291z"/>
   <path d="m256.26 16.301h-3.9274v17.811h3.9274z"/>
   <path d="m282.79 16.301h-13.358v17.811h13.533v-3.277h-9.656v-4.3777h8.7054v-3.0769h-8.7054v-3.8774h9.4808z"/>
   <path d="m286.9 34.112h3.7773v-11.957l7.3795 11.957h3.9024v-17.811h-3.7523v11.932l-7.3295-11.932h-3.9774z"/>
   <path d="m322.54 24.481h-7.4796v2.9018h3.9774c-0.05 1.2007-0.47529 2.1763-1.2508 2.9268-0.80049 0.75046-1.8011 1.1007-3.0018 1.1007-1.551 0-2.7767-0.52532-3.6272-1.601-0.85053-1.0757-1.2758-2.5766-1.2758-4.5278 0-1.9012 0.42526-3.3771 1.2758-4.4527 0.85052-1.0757 2.0012-1.626 3.5022-1.626 1.0256 0 1.8762 0.27517 2.5516 0.77548 0.70043 0.52532 1.1257 1.2508 1.3008 2.1763h3.7773c-0.22514-1.8511-1.0506-3.3521-2.4515-4.5028-1.4009-1.1507-3.1019-1.7261-5.1532-1.7261-2.5516 0-4.6529 0.87554-6.3039 2.6266-1.626 1.7511-2.4515 3.9774-2.4515 6.7291s0.77548 4.9781 2.3264 6.6791c1.551 1.7261 3.5772 2.5766 6.0537 2.5766 2.2514 0 4.0275-0.80049 5.3533-2.4515l0.37524 2.0262h2.4765z"/>
   <path d="m330.85 16.301h-3.9274v17.811h3.9274z"/>
   <path d="m335.55 34.112h3.7773v-11.957l7.3795 11.957h3.9024v-17.811h-3.7523v11.932l-7.3295-11.932h-3.9774z"/>
   <path d="m370.52 16.301h-4.3277l-4.2026 7.1294-4.1526-7.1294h-4.4528l6.6541 10.882v6.9293h3.8524v-6.8542z"/>
   <path d="m386.63 16.301h-13.358v17.811h13.533v-3.277h-9.656v-4.3777h8.7054v-3.0769h-8.7054v-3.8774h9.4808z"/>
   <path d="m390.89 16.301v17.811h3.8774v-6.9793h3.4772c1.2508 0 2.1013 0.25015 2.6016 0.72545 0.50031 0.50031 0.80049 1.3508 0.95058 2.6016 0 0.07505 0.025 0.42526 0.075 1.0757 0.05 0.6504 0.10006 1.1757 0.17511 1.576 0.05 0.40025 0.15009 0.75046 0.30018 1.0256h4.0525c-0.1501-0.12508-0.25016-0.30018-0.35022-0.55034s-0.17511-0.57536-0.22514-0.92557c-0.05-0.37523-0.10006-0.70043-0.12508-0.95058-0.05-0.25015-0.075-0.60037-0.10006-1.0256-0.05-0.45028-0.05-0.70043-0.05-0.77548-0.22514-2.4515-1.1007-3.8524-2.6266-4.1526 0.87553-0.35022 1.576-0.90055 2.0763-1.676 0.50031-0.77548 0.75047-1.676 0.75047-2.7017 0-1.701-0.57536-2.9768-1.676-3.8023-1.1257-0.85052-2.5766-1.2508-4.3277-1.2508zm3.8774 3.1019h3.8774c1.0006 0 1.7761 0.15009 2.3765 0.50031 0.60037 0.3252 0.90056 0.95058 0.90056 1.9012 0 1.0006-0.3252 1.651-0.92557 2.0012-0.60037 0.35022-1.4509 0.52532-2.5266 0.52532h-3.7023z"/>
   <path d="m413.98 16.301h-3.9274v17.811h3.9274z"/>
   <path d="m427.53 16.276h-4.0275l-6.7792 17.836h4.0025l1.4509-3.9774h6.6291l1.4009 3.9774h4.1025zm0.3252 11.007h-4.7279l2.3765-6.6291z"/>
   <path d="m131.42 64.13h7.2044c2.7517 0 4.878-0.75046 6.3789-2.3014 1.5009-1.5259 2.2514-3.7273 2.2514-6.6041 0-2.8518-0.75046-5.0531-2.2514-6.6041-1.5009-1.5259-3.6272-2.3014-6.3789-2.3014h-7.2044zm3.8774-3.252v-11.307h2.8518c1.7261 0 3.0269 0.50031 3.8774 1.4759 0.85053 0.9756 1.2758 2.3765 1.2758 4.1776 0 3.7773-1.7261 5.6535-5.1782 5.6535z"/>
   <path d="m164.54 46.319h-13.358v17.811h13.533v-3.277h-9.6559v-4.3777h8.7054v-3.0769h-8.7054v-3.8774h9.4808z"/>
   <path d="m177.14 64.13h7.2044c2.7517 0 4.878-0.75046 6.3789-2.3014 1.5009-1.5259 2.2514-3.7273 2.2514-6.6041 0-2.8518-0.75046-5.0531-2.2514-6.6041-1.5009-1.5259-3.6272-2.3014-6.3789-2.3014h-7.2044zm3.8774-3.252v-11.307h2.8518c1.7261 0 3.0269 0.50031 3.8774 1.4759 0.85052 0.9756 1.2758 2.3765 1.2758 4.1776 0 3.7773-1.7261 5.6535-5.1782 5.6535z"/>
   <path d="m205.76 46.294h-4.0275l-6.7792 17.836h4.0025l1.4509-3.9774h6.6291l1.4009 3.9774h4.1025zm0.3252 11.007h-4.7279l2.3765-6.6291z"/>
   <path d="m215.31 64.13h7.2044c2.7517 0 4.878-0.75046 6.3789-2.3014 1.5009-1.5259 2.2514-3.7273 2.2514-6.6041 0-2.8518-0.75046-5.0531-2.2514-6.6041-1.5009-1.5259-3.6272-2.3014-6.3789-2.3014h-7.2044zm3.8774-3.252v-11.307h2.8518c1.7261 0 3.0269 0.50031 3.8774 1.4759s1.2758 2.3765 1.2758 4.1776c0 3.7773-1.7261 5.6535-5.1782 5.6535z"/>
   <path d="m248.43 46.319h-13.358v17.811h13.533v-3.277h-9.656v-4.3777h8.7054v-3.0769h-8.7054v-3.8774h9.4808z"/>
   <path d="m265.72 51.623c-0.05-1.9012-0.70043-3.302-1.9512-4.2526-1.2758-0.95058-2.9018-1.4259-4.903-1.4259-2.0763 0-3.7273 0.50031-4.9781 1.4509-1.2508 0.9756-1.8762 2.2764-1.8762 3.9024 0 0.50031 0.05 0.95058 0.17511 1.3758 0.12507 0.42526 0.27517 0.77548 0.42526 1.0757s0.37523 0.57535 0.72544 0.85052c0.35022 0.25015 0.62539 0.47529 0.87554 0.62538 0.22514 0.15009 0.60037 0.30018 1.1007 0.50031 0.50031 0.17511 0.87554 0.30018 1.1007 0.37523 0.25015 0.07505 0.6504 0.20012 1.2508 0.37523 0.075 0 0.15009 0.02502 0.22514 0.05003 0.10006 0.02502 0.15009 0.05003 0.20012 0.07505 0.05 0 0.12508 0.02502 0.22514 0.05003 1.7511 0.50031 2.8768 0.87554 3.4271 1.1757 0.55034 0.27517 0.80049 0.72545 0.80049 1.3508 0 0.72545-0.27517 1.3008-0.87554 1.7261-0.60037 0.42526-1.4009 0.6504-2.4265 0.6504-2.6016 0-3.9524-1.1257-4.0275-3.3521h-3.8774c0.025 2.0012 0.72545 3.5772 2.0763 4.6779 1.3508 1.1007 3.252 1.676 5.6535 1.676 0.95059 0 1.8511-0.12508 2.7017-0.3252 0.85053-0.20012 1.626-0.52532 2.3264-0.9756s1.2758-1.0506 1.676-1.8011c0.42526-0.75046 0.62538-1.651 0.62538-2.6516 0-1.4009-0.42526-2.4765-1.2758-3.227-0.85053-0.75046-2.1763-1.3758-3.9274-1.8762-0.40025-0.12508-0.85052-0.25015-1.4009-0.37523-0.52533-0.15009-0.92557-0.25015-1.2258-0.3252-0.30018-0.10006-0.62538-0.20012-0.9756-0.30018-0.35021-0.10006-0.62538-0.20012-0.82551-0.30018-0.1751-0.10006-0.35021-0.20012-0.55033-0.35022-0.17511-0.15009-0.30019-0.30018-0.37524-0.45028-0.05-0.17511-0.10006-0.37523-0.10006-0.57535 0-0.6504 0.27517-1.1507 0.77548-1.5009 0.50031-0.35022 1.2007-0.52532 2.1013-0.52532 2.1013 0 3.227 0.87554 3.3771 2.6516z"/>
   <path d="m131.65 76.338v17.811h7.3295c4.5028 0 6.7542-1.676 6.7542-5.0281 0-1.1757-0.30018-2.1513-0.90055-2.9268-0.60037-0.80049-1.4259-1.3008-2.5266-1.551 0.8005-0.30018 1.4259-0.77548 1.9012-1.4759 0.4753-0.70043 0.72545-1.4759 0.72545-2.3514 0-1.551-0.55034-2.6766-1.626-3.3771-1.0757-0.72545-2.4265-1.0757-4.0525-1.0757zm2.3014 2.0262h4.4527c0.50031 0 0.92557 0 1.2508 0.02501 0.3252 0.02502 0.70043 0.10006 1.1007 0.20012 0.40025 0.10006 0.72545 0.22514 0.95058 0.42526 0.25016 0.20012 0.45028 0.47529 0.60037 0.82551 0.17511 0.35022 0.25016 0.80049 0.25016 1.3258 0 0.50031-0.0751 0.95058-0.27517 1.3258-0.20012 0.35022-0.42526 0.62538-0.67542 0.82551-0.25015 0.20012-0.60037 0.35022-1.0256 0.45028-0.45028 0.10006-0.82551 0.15009-1.1757 0.17511-0.35022 0.02501-0.75046 0.05003-1.2258 0.05003h-4.2276zm0 7.4796h4.3026 1.2258c0.25016 0 0.62539 0.05003 1.1257 0.10006 0.47529 0.05003 0.85052 0.12508 1.1007 0.27517 0.25016 0.12508 0.52533 0.30018 0.82551 0.52532 0.30019 0.20012 0.50031 0.50031 0.62539 0.87554 0.12507 0.35022 0.17511 0.80049 0.17511 1.3008 0 0.60037-0.0751 1.1007-0.27517 1.5259-0.17511 0.42526-0.40025 0.75046-0.67542 0.9756-0.25015 0.22514-0.62538 0.40025-1.0757 0.52532-0.45028 0.10006-0.87554 0.17511-1.2508 0.20012-0.35022 0.02502-0.82551 0.05003-1.4259 0.05003h-4.7029z"/>
   <path d="m157.51 76.338h-2.6516l-7.0043 17.811h2.5015l2.0262-5.4534h7.4796l1.9762 5.4534h2.6266zm1.651 10.481h-6.1038l3.0769-8.2301z"/>
   <path d="m167.49 76.338v17.811h2.3514v-7.7047h4.6779c1.601 0 2.6516 0.25015 3.202 0.75046 0.55034 0.50031 0.85053 1.5259 0.95059 3.0269 0 0.05003 0 0.27517 0.025 0.67542 0 0.40025 0.025 0.72545 0.05 0.92557 0 0.20012 0.025 0.47529 0.075 0.82551 0.025 0.35022 0.0751 0.62538 0.15009 0.87554 0.0751 0.25015 0.17511 0.47529 0.30019 0.62538h2.7017c-0.10006-0.10006-0.20012-0.20012-0.27517-0.3252-0.10006-0.12508-0.17511-0.27517-0.22514-0.42526-0.075-0.15009-0.12507-0.30018-0.1751-0.42526-0.05-0.12508-0.10007-0.30018-0.12508-0.50031-0.05-0.20012-0.075-0.35022-0.075-0.47529-0.025-0.10006-0.05-0.27517-0.075-0.52532-0.025-0.22514-0.025-0.37523-0.025-0.47529 0-0.10006-0.025-0.27517-0.025-0.52532-0.025-0.25015-0.025-0.42526-0.025-0.50031-0.05-0.67542-0.0751-1.2007-0.12508-1.551-0.05-0.35022-0.1751-0.75046-0.3252-1.2007-0.1751-0.45028-0.45027-0.80049-0.80049-1.0506-0.37523-0.25015-0.85052-0.42526-1.4509-0.57536 0.90055-0.25015 1.651-0.77548 2.2014-1.576s0.85053-1.701 0.85053-2.7517c0-3.277-2.0012-4.928-5.9787-4.928zm2.3514 2.0012h5.0531c1.2508 0 2.2264 0.22514 2.9518 0.6504s1.1007 1.2258 1.1007 2.4265c0 0.57535-0.10006 1.0506-0.27517 1.4509-0.20012 0.40025-0.42526 0.72545-0.70043 0.92557-0.27517 0.22514-0.62539 0.40025-1.0757 0.50031-0.45028 0.12508-0.87554 0.20012-1.2508 0.22514-0.37524 0.05003-0.82551 0.05003-1.3758 0.05003h-4.4277z"/>
   <path d="m200.96 87.42h-2.3514c-0.20012 1.676-0.72544 2.9518-1.626 3.8274-0.90055 0.87554-2.1263 1.3008-3.6272 1.3008-1.8511 0-3.327-0.6504-4.3777-1.9512-1.0757-1.3008-1.601-3.0769-1.601-5.3533 0-2.0513 0.50031-3.7773 1.5009-5.1782 1.0006-1.4009 2.5015-2.1013 4.4778-2.1013 1.3258 0 2.4265 0.35022 3.327 1.0006 0.90055 0.6504 1.5009 1.576 1.7511 2.7267h2.3514c-0.15009-1.8011-0.95058-3.202-2.4015-4.2276-1.4259-1.0006-3.0769-1.5259-4.953-1.5259-2.6516 0-4.7029 0.90055-6.2038 2.6766-1.5009 1.7761-2.2264 4.0025-2.2264 6.6541 0 2.8518 0.72545 5.1282 2.2264 6.8042 1.4759 1.676 3.4771 2.5015 6.0037 2.5015 2.2264 0 4.0275-0.62538 5.3783-1.8762s2.1513-3.0269 2.3514-5.2782z"/>
   <path d="m217.52 76.338h-12.333v17.811h12.458v-2.0513h-10.106v-6.1538h9.3308v-1.9762h-9.3308v-5.5784h9.9812z"/>
   <path d="m233.56 92.098h-9.4558v-15.76h-2.3514v17.811h11.807z"/>
   <path d="m244.39 75.913c-2.6016 0-4.6529 0.82551-6.2038 2.4765-1.551 1.651-2.3014 3.8774-2.3014 6.6541 0 1.3258 0.1751 2.5516 0.52532 3.6773 0.35021 1.1507 0.87554 2.1513 1.576 3.0269 0.70043 0.90055 1.601 1.576 2.7017 2.0763s2.3264 0.75046 3.7273 0.75046c2.7017 0 4.803-0.87554 6.3039-2.6766 1.4759-1.7761 2.2264-4.0525 2.2264-6.8042 0-2.7267-0.75046-4.928-2.2514-6.6291-1.5009-1.701-3.6022-2.5516-6.3039-2.5516zm0 2.0513c1.8762 0 3.3771 0.67542 4.5028 1.9762 1.1257 1.3258 1.701 3.0769 1.701 5.2782 0 2.2264-0.57535 4.0025-1.676 5.3283-1.1257 1.3508-2.6266 2.0012-4.5028 2.0012-1.8762 0-3.3771-0.6504-4.5028-1.9762-1.1257-1.3258-1.701-3.1019-1.701-5.3533 0-2.0513 0.55034-3.7523 1.601-5.1532 1.0506-1.4009 2.5766-2.1013 4.5778-2.1013z"/>
   <path d="m257.05 76.338v17.811h2.2514v-14.284l9.3558 14.284h2.6516v-17.811h-2.2764v14.459l-9.4058-14.459z"/>
   <path d="m283.94 76.338h-2.6516l-7.0043 17.811h2.5015l2.0262-5.4534h7.4796l1.9762 5.4534h2.6266zm1.651 10.481h-6.1038l3.0769-8.2301z"/>
   <path d="m306.9 76.338h-14.634v3.327h5.3533v14.484h3.9274v-14.484h5.3533z"/>
   <path d="m323.56 76.338h-13.358v17.811h13.533v-3.277h-9.656v-4.3777h8.7054v-3.0769h-8.7054v-3.8774h9.4808z"/>
   <path d="m343.58 87.27h-3.8774c-0.35021 2.6766-1.701 4.0025-4.0775 4.0025-1.4509 0-2.5766-0.52532-3.4271-1.626-0.85052-1.1007-1.2758-2.5516-1.2758-4.4027 0-1.0506 0.15009-2.0012 0.45027-2.9018 0.30019-0.87554 0.8005-1.626 1.551-2.2264 0.75046-0.60037 1.651-0.90056 2.7517-0.90056 1.0506 0 1.9012 0.25015 2.6016 0.80049 0.70044 0.55034 1.1507 1.3008 1.3508 2.3014h3.8274c-0.15009-1.8511-0.95058-3.3771-2.3765-4.5778-1.4509-1.2007-3.227-1.8011-5.3283-1.8011-2.6516 0-4.7779 0.87554-6.3789 2.6516-1.601 1.7511-2.3765 3.9774-2.3765 6.6541 0 2.8017 0.77548 5.0781 2.3514 6.7792s3.6522 2.5766 6.2538 2.5766c2.3765 0 4.2526-0.67542 5.6285-1.9762 1.3508-1.3258 2.1513-3.1019 2.3514-5.3533z"/>
   <path d="m362.54 76.338h-3.9024v6.7041h-7.2795v-6.7041h-3.9024v17.811h3.9024v-7.6797h7.2795v7.6797h3.9024z"/>
  </g>
 </g>
</svg>
