<?xml version="1.0" encoding="UTF-8" standalone="no"?>
<!-- Created with Inkscape (http://www.inkscape.org/) -->

<svg
   width="450mm"
   height="110.5mm"
   viewBox="0 0 450 110.5"
   version="1.1"
   id="svg949"
   inkscape:version="1.2.2 (b0a8486541, 2022-12-01)"
   sodipodi:docname="logo-web-gced-curves.svg"
   xml:space="preserve"
   xmlns:inkscape="http://www.inkscape.org/namespaces/inkscape"
   xmlns:sodipodi="http://sodipodi.sourceforge.net/DTD/sodipodi-0.dtd"
   xmlns="http://www.w3.org/2000/svg"
   xmlns:svg="http://www.w3.org/2000/svg"><sodipodi:namedview
     id="namedview951"
     pagecolor="#ffffff"
     bordercolor="#000000"
     borderopacity="0.25"
     inkscape:showpageshadow="2"
     inkscape:pageopacity="0.0"
     inkscape:pagecheckerboard="0"
     inkscape:deskcolor="#d1d1d1"
     inkscape:document-units="mm"
     showgrid="false"
     inkscape:zoom="0.457453"
     inkscape:cx="942.17329"
     inkscape:cy="335.5536"
     inkscape:window-width="1440"
     inkscape:window-height="2491"
     inkscape:window-x="0"
     inkscape:window-y="32"
     inkscape:window-maximized="1"
     inkscape:current-layer="layer1" /><defs
     id="defs946"><rect
   x="480.62762"
   y="58.434517"
   width="1419.7188"
   height="304.61234"
   id="rect155" />
	
	
	
	
	
	
	
	
	
	
	
	
	
	
	
	
	
	
	
	
	
	
	
	
	
	
	
	
	
	
	
	
	
	
	
	
	
	
	
	
	
	
	
	
	
	
	
	
</defs><g
     inkscape:label="Layer 1"
     inkscape:groupmode="layer"
     id="layer1"><g
       id="g3091"><g
         id="g102"
         transform="matrix(1.0009058,0,0,1.0009058,-1.5131145e-4,-3.6221638e-7)">
		<g
   id="g100">
			<path
   class="st0"
   d="M 55.2,0 C 24.7,0 0,24.7 0,55.2 c 0,30.5 24.7,55.2 55.2,55.2 30.5,0 55.2,-24.7 55.2,-55.2 C 110.5,24.7 85.7,0 55.2,0 Z"
   id="path98"
   style="fill:#007bc0"
   sodipodi:nodetypes="ssscs" />
		</g>
	</g><circle
         style="opacity:1;fill:none;fill-opacity:0.598677;stroke:#ffffff;stroke-width:2.3;stroke-dasharray:none;stroke-opacity:1"
         id="path1751"
         cx="50.165668"
         cy="15.358554"
         r="7.3180356" /><circle
         style="opacity:1;fill:none;fill-opacity:0.598677;stroke:#ffffff;stroke-width:2.3;stroke-dasharray:none;stroke-opacity:1"
         id="circle1753"
         cx="69.325279"
         cy="23.928835"
         r="7.3180356" /><circle
         style="opacity:1;fill:none;fill-opacity:0.598677;stroke:#ffffff;stroke-width:2.3;stroke-dasharray:none;stroke-opacity:1"
         id="circle1755"
         cx="21.674932"
         cy="56.415432"
         r="7.3180356" /><circle
         style="opacity:1;fill:none;fill-opacity:0.598677;stroke:#ffffff;stroke-width:2.3;stroke-dasharray:none;stroke-opacity:1"
         id="circle1757"
         cx="21.331406"
         cy="77.315544"
         r="7.3180356" /><circle
         style="opacity:1;fill:none;fill-opacity:0.598677;stroke:#ffffff;stroke-width:2.3;stroke-dasharray:none;stroke-opacity:1"
         id="circle1759"
         cx="80.076904"
         cy="80.884102"
         r="7.3180356" /><circle
         style="opacity:1;fill:none;fill-opacity:0.598677;stroke:#ffffff;stroke-width:2.3;stroke-dasharray:none;stroke-opacity:1"
         id="circle1761"
         cx="94.91568"
         cy="65.997971"
         r="7.3180356" /><circle
         style="opacity:1;fill:#ffffff;fill-opacity:1;stroke:none;stroke-width:2.35789;stroke-dasharray:none;stroke-opacity:1"
         id="circle1763"
         cx="60.857243"
         cy="42.803047"
         r="7.502212" /><circle
         style="opacity:1;fill:#ffffff;fill-opacity:1;stroke:none;stroke-width:2.35789;stroke-dasharray:none;stroke-opacity:1"
         id="circle1765"
         cx="42.419968"
         cy="56.704624"
         r="7.502212" /><circle
         style="opacity:1;fill:#ffffff;fill-opacity:1;stroke:none;stroke-width:2.35789;stroke-dasharray:none;stroke-opacity:1"
         id="circle1767"
         cx="65.312904"
         cy="66.287155"
         r="7.502212" /><path
         style="opacity:1;fill:none;fill-opacity:1;stroke:#ffffff;stroke-width:2.8;stroke-dasharray:none;stroke-opacity:1"
         d="m 52.532951,22.283119 6.6743,15.516832"
         id="path1823" /><path
         style="opacity:1;fill:none;fill-opacity:1;stroke:#ffffff;stroke-width:2.8;stroke-dasharray:none;stroke-opacity:1"
         d="M 66.445044,30.656233 60.857243,42.803047"
         id="path1933"
         sodipodi:nodetypes="cc" /><path
         style="opacity:1;fill:none;fill-opacity:1;stroke:#ffffff;stroke-width:2.8;stroke-dasharray:none;stroke-opacity:1"
         d="M 64.446421,66.654531 62.958266,44.245847"
         id="path1935"
         sodipodi:nodetypes="cc" /><path
         style="opacity:1;fill:none;fill-opacity:1;stroke:#ffffff;stroke-width:2.8;stroke-dasharray:none;stroke-opacity:1"
         d="M 43.818682,55.25 56.641387,44.871881"
         id="path1937"
         sodipodi:nodetypes="cc" /><path
         style="opacity:1;fill:none;fill-opacity:1;stroke:#ffffff;stroke-width:2.8;stroke-dasharray:none;stroke-opacity:1"
         d="M 39.047922,56.704624 28.992968,56.466554"
         id="path1939"
         sodipodi:nodetypes="cc" /><path
         style="opacity:1;fill:none;fill-opacity:1;stroke:#ffffff;stroke-width:2.8;stroke-dasharray:none;stroke-opacity:1"
         d="M 38.753244,60.646177 27.005264,72.69375"
         id="path1941"
         sodipodi:nodetypes="cc" /><path
         style="opacity:1;fill:none;fill-opacity:1;stroke:#ffffff;stroke-width:2.8;stroke-dasharray:none;stroke-opacity:1"
         d="m 47.679802,58.54485 12.420174,4.811758"
         id="path1943"
         sodipodi:nodetypes="cc" /><path
         style="opacity:1;fill:none;fill-opacity:1;stroke:#ffffff;stroke-width:2.8;stroke-dasharray:none;stroke-opacity:1"
         d="m 74.793929,75.766697 -5.570894,-5.55777"
         id="path1945"
         sodipodi:nodetypes="cc" /><path
         style="opacity:1;fill:none;fill-opacity:1;stroke:#ffffff;stroke-width:2.8;stroke-dasharray:none;stroke-opacity:1"
         d="M 87.597644,65.997971 72.008482,66.287155"
         id="path1947"
         sodipodi:nodetypes="cc" /></g><text
       xml:space="preserve"
       transform="scale(0.26458333)"
       id="text153"
       style="font-size:24px;font-family:Iosevka;-inkscape-font-specification:'Iosevka, Normal';text-align:center;white-space:pre;shape-inside:url(#rect155);display:inline;fill:#007bc0;fill-opacity:1;stroke:#ffffff;stroke-width:10.5827" /><path
       d="m 147.30637,27.232734 h -3.87738 c -0.35022,2.676648 -1.70105,4.002464 -4.07751,4.002464 -1.4509,0 -2.57659,-0.525323 -3.42711,-1.626001 -0.85053,-1.100678 -1.27579,-2.551571 -1.27579,-4.40271 0,-1.050647 0.15009,-2.001232 0.45028,-2.901787 0.30018,-0.875539 0.80049,-1.626001 1.55095,-2.22637 0.75047,-0.60037 1.65102,-0.900555 2.7517,-0.900555 1.05064,0 1.90117,0.250154 2.6016,0.800493 0.70043,0.550339 1.15071,1.300801 1.35083,2.301417 h 3.82736 c -0.1501,-1.85114 -0.95059,-3.377079 -2.37647,-4.577818 -1.45089,-1.20074 -3.22698,-1.801109 -5.32828,-1.801109 -2.65163,0 -4.77794,0.875539 -6.37892,2.651632 -1.60099,1.751078 -2.37647,3.977449 -2.37647,6.654097 0,2.801724 0.77548,5.078126 2.35145,6.779173 1.57597,1.701047 3.65225,2.576586 6.25385,2.576586 2.37646,0 4.25262,-0.675416 5.62847,-1.976216 1.35083,-1.325817 2.15132,-3.10191 2.35144,-5.353296 z"
       id="path2993"
       style="font-weight:bold;font-size:25.0154px;line-height:1.2;font-family:'Helvetica Neue';-inkscape-font-specification:'Helvetica Neue, Bold';letter-spacing:1.25078px;word-spacing:0.264965px;fill:#007bc0;stroke:#ffffff;stroke-width:0" /><path
       d="m 155.11117,16.301004 h -3.92742 v 17.810965 h 3.92742 z"
       id="path2995"
       style="font-weight:bold;font-size:25.0154px;line-height:1.2;font-family:'Helvetica Neue';-inkscape-font-specification:'Helvetica Neue, Bold';letter-spacing:1.25078px;word-spacing:0.264965px;fill:#007bc0;stroke:#ffffff;stroke-width:0" /><path
       d="m 173.1723,16.301004 h -13.35822 v 17.810965 h 13.53333 v -3.277017 h -9.65595 v -4.377695 h 8.70536 v -3.076895 h -8.70536 v -3.877387 h 9.48084 z"
       id="path2997"
       style="font-weight:bold;font-size:25.0154px;line-height:1.2;font-family:'Helvetica Neue';-inkscape-font-specification:'Helvetica Neue, Bold';letter-spacing:1.25078px;word-spacing:0.264965px;fill:#007bc0;stroke:#ffffff;stroke-width:0" /><path
       d="m 177.27485,34.111969 h 3.77733 V 22.154608 l 7.37954,11.957361 h 3.9024 V 16.301004 h -3.75231 V 28.23335 L 181.2523,16.301004 h -3.97745 z"
       id="path2999"
       style="font-weight:bold;font-size:25.0154px;line-height:1.2;font-family:'Helvetica Neue';-inkscape-font-specification:'Helvetica Neue, Bold';letter-spacing:1.25078px;word-spacing:0.264965px;fill:#007bc0;stroke:#ffffff;stroke-width:0" /><path
       d="m 212.97182,27.232734 h -3.87739 c -0.35022,2.676648 -1.70105,4.002464 -4.07751,4.002464 -1.45089,0 -2.57659,-0.525323 -3.42711,-1.626001 -0.85052,-1.100678 -1.27579,-2.551571 -1.27579,-4.40271 0,-1.050647 0.1501,-2.001232 0.45028,-2.901787 0.30019,-0.875539 0.80049,-1.626001 1.55096,-2.22637 0.75046,-0.60037 1.65101,-0.900555 2.75169,-0.900555 1.05065,0 1.90117,0.250154 2.6016,0.800493 0.70043,0.550339 1.15071,1.300801 1.35083,2.301417 h 3.82736 c -0.15009,-1.85114 -0.95058,-3.377079 -2.37646,-4.577818 -1.4509,-1.20074 -3.22699,-1.801109 -5.32828,-1.801109 -2.65164,0 -4.77794,0.875539 -6.37893,2.651632 -1.60099,1.751078 -2.37646,3.977449 -2.37646,6.654097 0,2.801724 0.77547,5.078126 2.35144,6.779173 1.57597,1.701047 3.65225,2.576586 6.25385,2.576586 2.37647,0 4.25262,-0.675416 5.62847,-1.976216 1.35083,-1.325817 2.15132,-3.10191 2.35145,-5.353296 z"
       id="path3001"
       style="font-weight:bold;font-size:25.0154px;line-height:1.2;font-family:'Helvetica Neue';-inkscape-font-specification:'Helvetica Neue, Bold';letter-spacing:1.25078px;word-spacing:0.264965px;fill:#007bc0;stroke:#ffffff;stroke-width:0" /><path
       d="m 220.77662,16.301004 h -3.92742 v 17.810965 h 3.92742 z"
       id="path3003"
       style="font-weight:bold;font-size:25.0154px;line-height:1.2;font-family:'Helvetica Neue';-inkscape-font-specification:'Helvetica Neue, Bold';letter-spacing:1.25078px;word-spacing:0.264965px;fill:#007bc0;stroke:#ffffff;stroke-width:0" /><path
       d="m 234.33498,16.275989 h -4.02748 l -6.77917,17.83598 h 4.00246 l 1.45089,-3.977449 h 6.62908 l 1.40087,3.977449 h 4.10252 z m 0.3252,11.006776 h -4.72791 l 2.37646,-6.629081 z"
       id="path3005"
       style="font-weight:bold;font-size:25.0154px;line-height:1.2;font-family:'Helvetica Neue';-inkscape-font-specification:'Helvetica Neue, Bold';letter-spacing:1.25078px;word-spacing:0.264965px;fill:#007bc0;stroke:#ffffff;stroke-width:0" /><path
       d="m 256.26328,16.301004 h -3.92742 v 17.810965 h 3.92742 z"
       id="path3007"
       style="font-weight:bold;font-size:25.0154px;line-height:1.2;font-family:'Helvetica Neue';-inkscape-font-specification:'Helvetica Neue, Bold';letter-spacing:1.25078px;word-spacing:0.264965px;fill:#007bc0;stroke:#ffffff;stroke-width:0" /><path
       d="m 282.79443,16.301004 h -13.35822 v 17.810965 h 13.53333 v -3.277017 h -9.65595 v -4.377695 h 8.70536 v -3.076895 h -8.70536 v -3.877387 h 9.48084 z"
       id="path3009"
       style="font-weight:bold;font-size:25.0154px;line-height:1.2;font-family:'Helvetica Neue';-inkscape-font-specification:'Helvetica Neue, Bold';letter-spacing:1.25078px;word-spacing:0.264965px;fill:#007bc0;stroke:#ffffff;stroke-width:0" /><path
       d="m 286.89699,34.111969 h 3.77733 V 22.154608 l 7.37954,11.957361 h 3.9024 V 16.301004 h -3.75231 V 28.23335 l -7.32951,-11.932346 h -3.97745 z"
       id="path3011"
       style="font-weight:bold;font-size:25.0154px;line-height:1.2;font-family:'Helvetica Neue';-inkscape-font-specification:'Helvetica Neue, Bold';letter-spacing:1.25078px;word-spacing:0.264965px;fill:#007bc0;stroke:#ffffff;stroke-width:0" /><path
       d="m 322.54393,24.48104 h -7.47961 v 2.901786 h 3.97745 c -0.05,1.20074 -0.47529,2.17634 -1.25077,2.926802 -0.80049,0.750462 -1.80111,1.100678 -3.00185,1.100678 -1.55095,0 -2.77671,-0.525324 -3.62723,-1.600986 -0.85053,-1.075662 -1.27579,-2.576586 -1.27579,-4.527787 0,-1.901171 0.42526,-3.377079 1.27579,-4.452741 0.85052,-1.075663 2.00123,-1.626001 3.50215,-1.626001 1.02564,0 1.87616,0.275169 2.55158,0.775477 0.70043,0.525323 1.12569,1.25077 1.3008,2.17634 h 3.77732 c -0.22514,-1.85114 -1.05065,-3.352064 -2.45151,-4.502772 -1.40086,-1.150709 -3.10191,-1.726063 -5.15317,-1.726063 -2.55157,0 -4.65286,0.875539 -6.30388,2.626617 -1.626,1.751078 -2.45151,3.977449 -2.45151,6.729143 0,2.751694 0.77548,4.978064 2.32643,6.679112 1.55096,1.726062 3.5772,2.576586 6.05373,2.576586 2.25138,0 4.02748,-0.800493 5.35329,-2.451509 l 0.37524,2.026247 h 2.47652 z"
       id="path3013"
       style="font-weight:bold;font-size:25.0154px;line-height:1.2;font-family:'Helvetica Neue';-inkscape-font-specification:'Helvetica Neue, Bold';letter-spacing:1.25078px;word-spacing:0.264965px;fill:#007bc0;stroke:#ffffff;stroke-width:0" /><path
       d="m 330.84907,16.301004 h -3.92742 v 17.810965 h 3.92742 z"
       id="path3015"
       style="font-weight:bold;font-size:25.0154px;line-height:1.2;font-family:'Helvetica Neue';-inkscape-font-specification:'Helvetica Neue, Bold';letter-spacing:1.25078px;word-spacing:0.264965px;fill:#007bc0;stroke:#ffffff;stroke-width:0" /><path
       d="m 335.55198,34.111969 h 3.77732 V 22.154608 l 7.37954,11.957361 h 3.90241 V 16.301004 h -3.75231 V 28.23335 l -7.32952,-11.932346 h -3.97744 z"
       id="path3017"
       style="font-weight:bold;font-size:25.0154px;line-height:1.2;font-family:'Helvetica Neue';-inkscape-font-specification:'Helvetica Neue, Bold';letter-spacing:1.25078px;word-spacing:0.264965px;fill:#007bc0;stroke:#ffffff;stroke-width:0" /><path
       d="m 370.52349,16.301004 h -4.32766 l -4.20259,7.129389 -4.15255,-7.129389 h -4.45275 l 6.6541,10.881699 v 6.929266 h 3.85237 v -6.85422 z"
       id="path3019"
       style="font-weight:bold;font-size:25.0154px;line-height:1.2;font-family:'Helvetica Neue';-inkscape-font-specification:'Helvetica Neue, Bold';letter-spacing:1.25078px;word-spacing:0.264965px;fill:#007bc0;stroke:#ffffff;stroke-width:0" /><path
       d="M 386.63342,16.301004 H 373.2752 v 17.810965 h 13.53333 v -3.277017 h -9.65595 v -4.377695 h 8.70536 v -3.076895 h -8.70536 v -3.877387 h 9.48084 z"
       id="path3021"
       style="font-weight:bold;font-size:25.0154px;line-height:1.2;font-family:'Helvetica Neue';-inkscape-font-specification:'Helvetica Neue, Bold';letter-spacing:1.25078px;word-spacing:0.264965px;fill:#007bc0;stroke:#ffffff;stroke-width:0" /><path
       d="m 390.88606,16.301004 v 17.810965 h 3.87738 v -6.979297 h 3.47715 c 1.25077,0 2.10129,0.250154 2.6016,0.725447 0.50031,0.500308 0.80049,1.350832 0.95058,2.601602 0,0.07505 0.025,0.425261 0.075,1.075662 0.05,0.6504 0.10006,1.175724 0.17511,1.57597 0.05,0.400246 0.15009,0.750462 0.30018,1.025631 h 4.0525 c -0.1501,-0.125077 -0.25016,-0.300184 -0.35022,-0.550338 -0.10006,-0.250154 -0.17511,-0.575355 -0.22514,-0.92557 -0.05,-0.375231 -0.10006,-0.700431 -0.12508,-0.950585 -0.05,-0.250154 -0.075,-0.60037 -0.10006,-1.025632 -0.05,-0.450277 -0.05,-0.700431 -0.05,-0.775477 -0.22514,-2.451509 -1.10068,-3.852372 -2.62661,-4.152557 0.87553,-0.350215 1.57597,-0.900554 2.07627,-1.676031 0.50031,-0.775478 0.75047,-1.676032 0.75047,-2.701664 0,-1.701047 -0.57536,-2.976832 -1.67604,-3.80234 -1.12569,-0.850524 -2.57658,-1.25077 -4.32766,-1.25077 z m 3.87738,3.10191 h 3.87739 c 1.00062,0 1.7761,0.150092 2.37646,0.500308 0.60037,0.3252 0.90056,0.950585 0.90056,1.90117 0,1.000616 -0.3252,1.651017 -0.92557,2.001232 -0.60037,0.350216 -1.45089,0.525324 -2.52656,0.525324 h -3.70228 z"
       id="path3023"
       style="font-weight:bold;font-size:25.0154px;line-height:1.2;font-family:'Helvetica Neue';-inkscape-font-specification:'Helvetica Neue, Bold';letter-spacing:1.25078px;word-spacing:0.264965px;fill:#007bc0;stroke:#ffffff;stroke-width:0" /><path
       d="m 413.97527,16.301004 h -3.92741 v 17.810965 h 3.92741 z"
       id="path3025"
       style="font-weight:bold;font-size:25.0154px;line-height:1.2;font-family:'Helvetica Neue';-inkscape-font-specification:'Helvetica Neue, Bold';letter-spacing:1.25078px;word-spacing:0.264965px;fill:#007bc0;stroke:#ffffff;stroke-width:0" /><path
       d="m 427.53365,16.275989 h -4.02748 l -6.77918,17.83598 h 4.00247 l 1.45089,-3.977449 h 6.62908 l 1.40087,3.977449 h 4.10252 z m 0.3252,11.006776 h -4.72791 l 2.37646,-6.629081 z"
       id="path3027"
       style="font-weight:bold;font-size:25.0154px;line-height:1.2;font-family:'Helvetica Neue';-inkscape-font-specification:'Helvetica Neue, Bold';letter-spacing:1.25078px;word-spacing:0.264965px;fill:#007bc0;stroke:#ffffff;stroke-width:0" /><path
       d="m 131.42159,64.13045 h 7.20444 c 2.75169,0 4.878,-0.750462 6.37893,-2.301417 1.50092,-1.525939 2.25138,-3.727294 2.25138,-6.604065 0,-2.851756 -0.75046,-5.053111 -2.25138,-6.604066 -1.50093,-1.525939 -3.62724,-2.301417 -6.37893,-2.301417 h -7.20444 z m 3.87739,-3.252002 V 49.571487 h 2.85176 c 1.72606,0 3.02686,0.500308 3.87738,1.475909 0.85053,0.975601 1.27579,2.376463 1.27579,4.177572 0,3.777325 -1.72606,5.65348 -5.17819,5.65348 z"
       id="path3029"
       style="font-weight:bold;font-size:25.0154px;line-height:1.2;font-family:'Helvetica Neue';-inkscape-font-specification:'Helvetica Neue, Bold';letter-spacing:1.25078px;word-spacing:0.264965px;fill:#007bc0;stroke:#ffffff;stroke-width:0" /><path
       d="M 164.54198,46.319485 H 151.18375 V 64.13045 h 13.53333 v -3.277017 h -9.65594 v -4.377695 h 8.70536 v -3.076894 h -8.70536 v -3.877387 h 9.48084 z"
       id="path3031"
       style="font-weight:bold;font-size:25.0154px;line-height:1.2;font-family:'Helvetica Neue';-inkscape-font-specification:'Helvetica Neue, Bold';letter-spacing:1.25078px;word-spacing:0.264965px;fill:#007bc0;stroke:#ffffff;stroke-width:0" /><path
       d="m 177.13957,64.13045 h 7.20443 c 2.7517,0 4.878,-0.750462 6.37893,-2.301417 1.50092,-1.525939 2.25138,-3.727294 2.25138,-6.604065 0,-2.851756 -0.75046,-5.053111 -2.25138,-6.604066 -1.50093,-1.525939 -3.62723,-2.301417 -6.37893,-2.301417 h -7.20443 z m 3.87738,-3.252002 V 49.571487 h 2.85176 c 1.72606,0 3.02686,0.500308 3.87739,1.475909 0.85052,0.975601 1.27578,2.376463 1.27578,4.177572 0,3.777325 -1.72606,5.65348 -5.17819,5.65348 z"
       id="path3033"
       style="font-weight:bold;font-size:25.0154px;line-height:1.2;font-family:'Helvetica Neue';-inkscape-font-specification:'Helvetica Neue, Bold';letter-spacing:1.25078px;word-spacing:0.264965px;fill:#007bc0;stroke:#ffffff;stroke-width:0" /><path
       d="m 205.75717,46.29447 h -4.02748 l -6.77917,17.83598 h 4.00246 l 1.4509,-3.977448 h 6.62908 l 1.40086,3.977448 h 4.10253 z m 0.3252,11.006776 h -4.72791 l 2.37647,-6.629081 z"
       id="path3035"
       style="font-weight:bold;font-size:25.0154px;line-height:1.2;font-family:'Helvetica Neue';-inkscape-font-specification:'Helvetica Neue, Bold';letter-spacing:1.25078px;word-spacing:0.264965px;fill:#007bc0;stroke:#ffffff;stroke-width:0" /><path
       d="m 215.31306,64.13045 h 7.20443 c 2.7517,0 4.87801,-0.750462 6.37893,-2.301417 1.50093,-1.525939 2.25139,-3.727294 2.25139,-6.604065 0,-2.851756 -0.75046,-5.053111 -2.25139,-6.604066 -1.50092,-1.525939 -3.62723,-2.301417 -6.37893,-2.301417 h -7.20443 z m 3.87739,-3.252002 V 49.571487 h 2.85175 c 1.72606,0 3.02687,0.500308 3.87739,1.475909 0.85052,0.975601 1.27578,2.376463 1.27578,4.177572 0,3.777325 -1.72606,5.65348 -5.17818,5.65348 z"
       id="path3037"
       style="font-weight:bold;font-size:25.0154px;line-height:1.2;font-family:'Helvetica Neue';-inkscape-font-specification:'Helvetica Neue, Bold';letter-spacing:1.25078px;word-spacing:0.264965px;fill:#007bc0;stroke:#ffffff;stroke-width:0" /><path
       d="M 248.43344,46.319485 H 235.07521 V 64.13045 h 13.53334 v -3.277017 h -9.65595 v -4.377695 h 8.70536 v -3.076894 h -8.70536 v -3.877387 h 9.48084 z"
       id="path3039"
       style="font-weight:bold;font-size:25.0154px;line-height:1.2;font-family:'Helvetica Neue';-inkscape-font-specification:'Helvetica Neue, Bold';letter-spacing:1.25078px;word-spacing:0.264965px;fill:#007bc0;stroke:#ffffff;stroke-width:0" /><path
       d="m 265.71911,51.62275 c -0.05,-1.90117 -0.70043,-3.302033 -1.9512,-4.252618 -1.27579,-0.950585 -2.90179,-1.425878 -4.90302,-1.425878 -2.07628,0 -3.7273,0.500308 -4.97807,1.450894 -1.25077,0.9756 -1.87615,2.276401 -1.87615,3.902402 0,0.500308 0.05,0.950585 0.17511,1.375847 0.12507,0.425262 0.27517,0.775477 0.42526,1.075662 0.15009,0.300185 0.37523,0.575354 0.72544,0.850524 0.35022,0.250154 0.62539,0.475292 0.87554,0.625385 0.22514,0.150092 0.60037,0.300185 1.10068,0.500308 0.50031,0.175108 0.87554,0.300185 1.10068,0.375231 0.25015,0.07505 0.6504,0.200123 1.25077,0.375231 0.075,0 0.15009,0.02502 0.22514,0.05003 0.10006,0.02502 0.15009,0.05003 0.20012,0.07505 0.05,0 0.12508,0.02502 0.22514,0.05003 1.75108,0.500308 2.87677,0.875539 3.42711,1.175723 0.55034,0.27517 0.80049,0.725447 0.80049,1.350832 0,0.725447 -0.27517,1.300801 -0.87554,1.726063 -0.60037,0.425261 -1.40086,0.6504 -2.42649,0.6504 -2.6016,0 -3.95243,-1.125693 -4.02748,-3.352064 h -3.87739 c 0.025,2.001232 0.72545,3.577203 2.07628,4.67788 1.35083,1.100678 3.252,1.676032 5.65348,1.676032 0.95059,0 1.85114,-0.125077 2.70166,-0.3252 0.85053,-0.200123 1.62601,-0.525324 2.32644,-0.975601 0.70043,-0.450277 1.27578,-1.050647 1.67603,-1.801109 0.42526,-0.750462 0.62538,-1.651016 0.62538,-2.651632 0,-1.400862 -0.42526,-2.476525 -1.27578,-3.226987 -0.85053,-0.750462 -2.17634,-1.375847 -3.92742,-1.876155 -0.40025,-0.125077 -0.85052,-0.250154 -1.40086,-0.375231 -0.52533,-0.150092 -0.92557,-0.250154 -1.22576,-0.3252 -0.30018,-0.100061 -0.62538,-0.200123 -0.9756,-0.300185 -0.35021,-0.100061 -0.62538,-0.200123 -0.82551,-0.300184 -0.1751,-0.100062 -0.35021,-0.200124 -0.55033,-0.350216 -0.17511,-0.150092 -0.30019,-0.300185 -0.37524,-0.450277 -0.05,-0.175108 -0.10006,-0.375231 -0.10006,-0.575354 0,-0.650401 0.27517,-1.150709 0.77548,-1.500924 0.50031,-0.350216 1.20074,-0.525324 2.10129,-0.525324 2.1013,0 3.22699,0.875539 3.37708,2.651633 z"
       id="path3041"
       style="font-weight:bold;font-size:25.0154px;line-height:1.2;font-family:'Helvetica Neue';-inkscape-font-specification:'Helvetica Neue, Bold';letter-spacing:1.25078px;word-spacing:0.264965px;fill:#007bc0;stroke:#ffffff;stroke-width:0" /><path
       d="m 131.64673,76.337966 v 17.810965 h 7.32952 c 4.50277,0 6.75415,-1.676032 6.75415,-5.028095 0,-1.175724 -0.30018,-2.151325 -0.90055,-2.926802 -0.60037,-0.800493 -1.42588,-1.300801 -2.52656,-1.550955 0.8005,-0.300185 1.42588,-0.775477 1.90117,-1.475908 0.4753,-0.700432 0.72545,-1.475909 0.72545,-2.351448 0,-1.550955 -0.55034,-2.676648 -1.626,-3.377079 -1.07566,-0.725447 -2.42649,-1.075662 -4.05249,-1.075662 z m 2.30142,2.026248 h 4.45274 c 0.50031,0 0.92557,0 1.25077,0.02501 0.3252,0.02502 0.70043,0.100062 1.10068,0.200123 0.40025,0.100062 0.72545,0.225139 0.95058,0.425262 0.25016,0.200123 0.45028,0.475293 0.60037,0.825508 0.17511,0.350216 0.25016,0.800493 0.25016,1.325817 0,0.500308 -0.0751,0.950585 -0.27517,1.325816 -0.20012,0.350215 -0.42526,0.625385 -0.67542,0.825508 -0.25015,0.200123 -0.60037,0.350216 -1.02563,0.450277 -0.45028,0.100062 -0.82551,0.150093 -1.17572,0.175108 -0.35022,0.02501 -0.75046,0.05003 -1.22576,0.05003 h -4.2276 z m 0,7.479604 h 4.30265 c 0.55034,0 0.95058,0 1.22575,0 0.25016,0 0.62539,0.05003 1.1257,0.100062 0.47529,0.05003 0.85052,0.125077 1.10067,0.275169 0.25016,0.125077 0.52533,0.300185 0.82551,0.525324 0.30019,0.200123 0.50031,0.500308 0.62539,0.875539 0.12507,0.350215 0.17511,0.800493 0.17511,1.300801 0,0.600369 -0.0751,1.100677 -0.27517,1.525939 -0.17511,0.425262 -0.40025,0.750462 -0.67542,0.975601 -0.25015,0.225138 -0.62538,0.400246 -1.07566,0.525323 -0.45028,0.100062 -0.87554,0.175108 -1.25077,0.200123 -0.35022,0.02502 -0.82551,0.05003 -1.42588,0.05003 h -4.7029 z"
       style="font-weight:normal;font-size:25.0154px;line-height:1.2;font-family:'Helvetica Neue';-inkscape-font-specification:'Helvetica Neue, Bold';letter-spacing:1.25078px;word-spacing:0.264965px;fill:#007bc0;stroke:#ffffff;stroke-width:0"
       id="path3043" /><path
       d="m 157.51265,76.337966 h -2.65163 l -7.00431,17.810965 h 2.50154 l 2.02625,-5.453357 h 7.4796 l 1.97622,5.453357 h 2.62662 z m 1.65102,10.481453 h -6.10376 l 3.0769,-8.230067 z"
       style="font-weight:normal;font-size:25.0154px;line-height:1.2;font-family:'Helvetica Neue';-inkscape-font-specification:'Helvetica Neue, Bold';letter-spacing:1.25078px;word-spacing:0.264965px;fill:#007bc0;stroke:#ffffff;stroke-width:0"
       id="path3045" /><path
       d="m 167.49383,76.337966 v 17.810965 h 2.35144 v -7.704743 h 4.67788 c 1.60099,0 2.65164,0.250154 3.20197,0.750462 0.55034,0.500308 0.85053,1.525939 0.95059,3.026863 0,0.05003 0,0.27517 0.025,0.675416 0,0.400247 0.025,0.725447 0.05,0.92557 0,0.200123 0.025,0.475293 0.075,0.825508 0.025,0.350216 0.0751,0.625385 0.15009,0.875539 0.0751,0.250154 0.17511,0.475293 0.30019,0.625385 h 2.70166 c -0.10006,-0.100061 -0.20012,-0.200123 -0.27517,-0.3252 -0.10006,-0.125077 -0.17511,-0.275169 -0.22514,-0.425262 -0.075,-0.150092 -0.12507,-0.300185 -0.1751,-0.425262 -0.05,-0.125077 -0.10007,-0.300184 -0.12508,-0.500308 -0.05,-0.200123 -0.075,-0.350215 -0.075,-0.475292 -0.025,-0.100062 -0.05,-0.27517 -0.075,-0.525324 -0.025,-0.225138 -0.025,-0.375231 -0.025,-0.475292 0,-0.100062 -0.025,-0.27517 -0.025,-0.525324 -0.025,-0.250154 -0.025,-0.425261 -0.025,-0.500308 -0.05,-0.675415 -0.0751,-1.200739 -0.12508,-1.550954 -0.05,-0.350216 -0.1751,-0.750462 -0.3252,-1.20074 -0.1751,-0.450277 -0.45027,-0.800492 -0.80049,-1.050646 -0.37523,-0.250154 -0.85052,-0.425262 -1.45089,-0.575355 0.90055,-0.250154 1.65101,-0.775477 2.20135,-1.57597 0.55034,-0.800493 0.85053,-1.701047 0.85053,-2.751694 0,-3.277017 -2.00124,-4.928034 -5.97868,-4.928034 z m 2.35144,2.001232 h 5.05311 c 1.25077,0 2.22637,0.225139 2.95182,0.650401 0.72545,0.425262 1.10068,1.225754 1.10068,2.426494 0,0.575354 -0.10006,1.050646 -0.27517,1.450893 -0.20012,0.400246 -0.42526,0.725446 -0.70043,0.92557 -0.27517,0.225138 -0.62539,0.400246 -1.07566,0.500308 -0.45028,0.125077 -0.87554,0.200123 -1.25077,0.225138 -0.37524,0.05003 -0.82551,0.05003 -1.37585,0.05003 h -4.42773 z"
       style="font-weight:normal;font-size:25.0154px;line-height:1.2;font-family:'Helvetica Neue';-inkscape-font-specification:'Helvetica Neue, Bold';letter-spacing:1.25078px;word-spacing:0.264965px;fill:#007bc0;stroke:#ffffff;stroke-width:0"
       id="path3047" /><path
       d="m 200.96443,87.419789 h -2.35145 c -0.20012,1.676031 -0.72544,2.951817 -1.626,3.827356 -0.90055,0.875539 -2.12631,1.300801 -3.62723,1.300801 -1.85114,0 -3.32705,-0.650401 -4.3777,-1.951202 -1.07566,-1.3008 -1.60098,-3.076894 -1.60098,-5.353295 0,-2.051263 0.50031,-3.777326 1.50092,-5.178188 1.00062,-1.400862 2.50154,-2.101294 4.47776,-2.101294 1.32581,0 2.42649,0.350216 3.32705,1.000616 0.90055,0.650401 1.50092,1.575971 1.75107,2.726679 h 2.35145 c -0.15009,-1.801109 -0.95058,-3.201971 -2.40148,-4.227603 -1.42587,-1.000616 -3.07689,-1.525939 -4.95305,-1.525939 -2.65163,0 -4.70289,0.900554 -6.20381,2.676648 -1.50093,1.776093 -2.22638,4.002464 -2.22638,6.654096 0,2.851756 0.72545,5.128157 2.22638,6.804189 1.4759,1.676032 3.47714,2.50154 6.00369,2.50154 2.22637,0 4.02748,-0.625385 5.37831,-1.876155 1.35083,-1.25077 2.15133,-3.026863 2.35145,-5.278249 z"
       style="font-weight:normal;font-size:25.0154px;line-height:1.2;font-family:'Helvetica Neue';-inkscape-font-specification:'Helvetica Neue, Bold';letter-spacing:1.25078px;word-spacing:0.264965px;fill:#007bc0;stroke:#ffffff;stroke-width:0"
       id="path3049" /><path
       d="m 217.52464,76.337966 h -12.3326 v 17.810965 h 12.45767 V 92.097668 H 207.54349 V 85.94388 h 9.33075 v -1.976217 h -9.33075 v -5.578434 h 9.98115 z"
       style="font-weight:normal;font-size:25.0154px;line-height:1.2;font-family:'Helvetica Neue';-inkscape-font-specification:'Helvetica Neue, Bold';letter-spacing:1.25078px;word-spacing:0.264965px;fill:#007bc0;stroke:#ffffff;stroke-width:0"
       id="path3051" /><path
       d="m 233.55952,92.097668 h -9.45583 V 76.337966 h -2.35144 v 17.810965 h 11.80727 z"
       style="font-weight:normal;font-size:25.0154px;line-height:1.2;font-family:'Helvetica Neue';-inkscape-font-specification:'Helvetica Neue, Bold';letter-spacing:1.25078px;word-spacing:0.264965px;fill:#007bc0;stroke:#ffffff;stroke-width:0"
       id="path3053" /><path
       d="m 244.39119,75.912705 c -2.6016,0 -4.65286,0.825508 -6.20382,2.476524 -1.55095,1.651017 -2.30141,3.877387 -2.30141,6.654097 0,1.325816 0.1751,2.55157 0.52532,3.677263 0.35021,1.150709 0.87554,2.151325 1.57597,3.026864 0.70043,0.900554 1.60098,1.57597 2.70166,2.076278 1.10068,0.500308 2.32643,0.750462 3.7273,0.750462 2.70166,0 4.80295,-0.875539 6.30388,-2.676648 1.47591,-1.776093 2.22637,-4.052495 2.22637,-6.804189 0,-2.726678 -0.75046,-4.928033 -2.25139,-6.629081 -1.50092,-1.701047 -3.60222,-2.55157 -6.30388,-2.55157 z m 0,2.051262 c 1.87616,0 3.37708,0.675416 4.50277,1.976217 1.1257,1.325816 1.70105,3.076894 1.70105,5.278249 0,2.226371 -0.57535,4.002464 -1.67603,5.328281 -1.12569,1.350831 -2.62662,2.001232 -4.50277,2.001232 -1.87616,0 -3.37708,-0.650401 -4.50278,-1.976217 -1.12569,-1.325816 -1.70104,-3.10191 -1.70104,-5.353296 0,-2.051262 0.55034,-3.75231 1.60098,-5.153172 1.05065,-1.400862 2.57659,-2.101294 4.57782,-2.101294 z"
       style="font-weight:normal;font-size:25.0154px;line-height:1.2;font-family:'Helvetica Neue';-inkscape-font-specification:'Helvetica Neue, Bold';letter-spacing:1.25078px;word-spacing:0.264965px;fill:#007bc0;stroke:#ffffff;stroke-width:0"
       id="path3055" /><path
       d="m 257.049,76.337966 v 17.810965 h 2.25138 V 79.865138 l 9.35576,14.283793 h 2.65164 V 76.337966 h -2.2764 v 14.458902 l -9.40579,-14.458902 z"
       style="font-weight:normal;font-size:25.0154px;line-height:1.2;font-family:'Helvetica Neue';-inkscape-font-specification:'Helvetica Neue, Bold';letter-spacing:1.25078px;word-spacing:0.264965px;fill:#007bc0;stroke:#ffffff;stroke-width:0"
       id="path3057" /><path
       d="m 283.94056,76.337966 h -2.65163 l -7.00431,17.810965 h 2.50154 l 2.02625,-5.453357 h 7.4796 l 1.97622,5.453357 h 2.62661 z m 1.65102,10.481453 h -6.10376 l 3.0769,-8.230067 z"
       style="font-weight:normal;font-size:25.0154px;line-height:1.2;font-family:'Helvetica Neue';-inkscape-font-specification:'Helvetica Neue, Bold';letter-spacing:1.25078px;word-spacing:0.264965px;fill:#007bc0;stroke:#ffffff;stroke-width:0"
       id="path3059" /><path
       d="m 306.90474,76.337966 h -14.63401 v 3.327049 h 5.35329 v 14.483916 h 3.92742 V 79.665015 h 5.3533 z"
       id="path3061"
       style="font-weight:bold;font-size:25.0154px;line-height:1.2;font-family:'Helvetica Neue';-inkscape-font-specification:'Helvetica Neue, Bold';letter-spacing:1.25078px;word-spacing:0.264965px;fill:#007bc0;stroke:#ffffff;stroke-width:0" /><path
       d="m 323.565,76.337966 h -13.35822 v 17.810965 h 13.53333 v -3.277017 h -9.65595 v -4.377695 h 8.70536 v -3.076894 h -8.70536 v -3.877387 h 9.48084 z"
       id="path3063"
       style="font-weight:bold;font-size:25.0154px;line-height:1.2;font-family:'Helvetica Neue';-inkscape-font-specification:'Helvetica Neue, Bold';letter-spacing:1.25078px;word-spacing:0.264965px;fill:#007bc0;stroke:#ffffff;stroke-width:0" /><path
       d="m 343.57734,87.269696 h -3.87739 c -0.35021,2.676648 -1.70104,4.002464 -4.07751,4.002464 -1.45089,0 -2.57658,-0.525323 -3.42711,-1.626001 -0.85052,-1.100677 -1.27578,-2.551571 -1.27578,-4.40271 0,-1.050647 0.15009,-2.001232 0.45027,-2.901787 0.30019,-0.875539 0.8005,-1.626001 1.55096,-2.22637 0.75046,-0.60037 1.65102,-0.900555 2.75169,-0.900555 1.05065,0 1.90117,0.250154 2.6016,0.800493 0.70044,0.550339 1.15071,1.300801 1.35084,2.301417 h 3.82735 c -0.15009,-1.85114 -0.95058,-3.377079 -2.37646,-4.577818 -1.45089,-1.200739 -3.22699,-1.801109 -5.32828,-1.801109 -2.65163,0 -4.77794,0.875539 -6.37893,2.651632 -1.60098,1.751078 -2.37646,3.977449 -2.37646,6.654097 0,2.801725 0.77548,5.078126 2.35145,6.779173 1.57597,1.701047 3.65225,2.576586 6.25385,2.576586 2.37646,0 4.25261,-0.675415 5.62846,-1.976216 1.35083,-1.325816 2.15133,-3.10191 2.35145,-5.353296 z"
       id="path3065"
       style="font-weight:bold;font-size:25.0154px;line-height:1.2;font-family:'Helvetica Neue';-inkscape-font-specification:'Helvetica Neue, Bold';letter-spacing:1.25078px;word-spacing:0.264965px;fill:#007bc0;stroke:#ffffff;stroke-width:0" /><path
       d="m 362.53902,76.337966 h -3.90241 v 6.704128 h -7.27948 v -6.704128 h -3.9024 v 17.810965 h 3.9024 v -7.679728 h 7.27948 v 7.679728 h 3.90241 z"
       id="path3067"
       style="font-weight:bold;font-size:25.0154px;line-height:1.2;font-family:'Helvetica Neue';-inkscape-font-specification:'Helvetica Neue, Bold';letter-spacing:1.25078px;word-spacing:0.264965px;fill:#007bc0;stroke:#ffffff;stroke-width:0" /></g></svg>
